# xmcd
#
# Track frame offsets: 
#        150
#        13684
#        27917
#        55711
#        68825
#        81677
#        97858
#        112005
#        121754
#        141472
#        159652
#        174313
#        219124
#
# Disc length: 3408 seconds
#
# Revision: 0
# Processed by: cddbd v1.5.2PL0 Copyright (c) Steve Scherf et al.
# Submitted via: ExactAudioCopy v0.99pb4
#
DISCID=ab0d4e0d
DTITLE=Ray Charles - Ray Charles in Concert
DYEAR=2003
DGENRE=R&B
TTITLE0=Hallelujah I Love Her So
TTITLE1=You Don't Know Me
TTITLE2=I've Got A Woman
TTITLE3=Hide 'Nor Hair
TTITLE4=Margie
TTITLE5=Don't Set Me Free
TTITLE6=Let The Good Times Roll
TTITLE7=Busted
TTITLE8=Don't Let Her Know
TTITLE9=Then We'll Be Home
TTITLE10=I Can't Stop Loving You
TTITLE11=Feel So Bad
TTITLE12=Living For The City
EXTD=
EXTT0=
EXTT1=
EXTT2=
EXTT3=
EXTT4=
EXTT5=
EXTT6=
EXTT7=
EXTT8=
EXTT9=
EXTT10=
EXTT11=
EXTT12=
PLAYORDER=
